ffmpeg version N-102852-g758e2da289 Copyright (c) 2000-2021 the FFmpeg developers
  built with gcc 7 (Ubuntu 7.5.0-3ubuntu1~18.04)
  configuration: --prefix=/home/aleksandr/ffmpeg_debug_build --pkg-config-flags=--static --extra-cflags=-I/home/aleksandr/ffmpeg_debug_build/include --extra-ldflags=-L/home/aleksandr/ffmpeg_debug_build/lib --extra-libs='-lpthread -lm' --bindir=/home/aleksandr/bin_debug --enable-gpl --enable-libass --enable-libfdk-aac --enable-libfreetype --enable-libmp3lame --enable-libopus --enable-libtheora --enable-libvorbis --enable-libvpx --enable-libx264 --enable-libx265 --enable-nonfree
  libavutil      57.  0.100 / 57.  0.100
  libavcodec     59.  3.101 / 59.  3.101
  libavformat    59.  4.100 / 59.  4.100
  libavdevice    59.  0.100 / 59.  0.100
  libavfilter     8.  0.103 /  8.  0.103
  libswscale      6.  0.100 /  6.  0.100
  libswresample   4.  0.100 /  4.  0.100
  libpostproc    56.  0.100 / 56.  0.100
Input #0, avi, from '../.././Samples/divx4b153_badmacroblock.avi':
  Duration: 00:00:44.00, start: 0.000000, bitrate: 917 kb/s
  Stream #0:0: Video: msmpeg4v3 (DIV3 / 0x33564944), yuv420p, 576x312, 775 kb/s, 25 fps, 25 tbr, 25 tbn
  Stream #0:1: Audio: mp3 (U[0][0][0] / 0x0055), 44100 Hz, stereo, fltp, 127 kb/s
Stream mapping:
  Stream #0:0 -> #0:0 (msmpeg4v3 (msmpeg4) -> h264 (libx264))
  Stream #0:1 -> #0:1 (mp3 (mp3float) -> aac (native))
Press [q] to stop, [?] for help
[libx264 @ 0x5647583b6c40] using cpu capabilities: MMX2 SSE2Fast SSSE3 SSE4.2 AVX FMA3 BMI2 AVX2
[libx264 @ 0x5647583b6c40] profile High, level 2.1
[libx264 @ 0x5647583b6c40] 264 - core 152 r2854 e9a5903 - H.264/MPEG-4 AVC codec - Copyleft 2003-2017 - http://www.videolan.org/x264.html - options: cabac=1 ref=3 deblock=1:0:0 analyse=0x3:0x113 me=hex subme=7 psy=1 psy_rd=1.00:0.00 mixed_ref=1 me_range=16 chroma_me=1 trellis=1 8x8dct=1 cqm=0 deadzone=21,11 fast_pskip=1 chroma_qp_offset=-2 threads=6 lookahead_threads=1 sliced_threads=0 nr=0 decimate=1 interlaced=0 bluray_compat=0 constrained_intra=0 bframes=3 b_pyramid=2 b_adapt=1 b_bias=0 direct=1 weightb=1 open_gop=0 weightp=2 keyint=250 keyint_min=25 scenecut=40 intra_refresh=0 rc_lookahead=40 rc=crf mbtree=1 crf=23.0 qcomp=0.60 qpmin=0 qpmax=69 qpstep=4 ip_ratio=1.40 aq=1:1.00
Output #0, mov, to '/home/aleksandr/Debug-release_tests/Debug/Samples/divx4b153_badmacroblock.avi_tc/output_std1.mov':
  Metadata:
    encoder         : Lavf59.4.100
  Stream #0:0: Video: h264 (avc1 / 0x31637661), yuv420p(progressive), 576x312, q=2-31, 25 fps, 12800 tbn
    Metadata:
      encoder         : Lavc59.3.101 libx264
    Side data:
      cpb: bitrate max/min/avg: 0/0/0 buffer size: 0 vbv_delay: N/A
  Stream #0:1: Audio: aac (LC) (mp4a / 0x6134706D), 44100 Hz, stereo, fltp, 128 kb/s
    Metadata:
      encoder         : Lavc59.3.101 aac
frame=    1 fps=0.0 q=0.0 size=       0kB time=00:00:00.44 bitrate=   0.7kbits/s speed=4.11x    frame=  176 fps=0.0 q=28.0 size=       0kB time=00:00:07.43 bitrate=   0.0kbits/s speed=12.1x    frame=  259 fps=232 q=28.0 size=     256kB time=00:00:10.77 bitrate= 194.7kbits/s speed=9.66x    frame=  351 fps=217 q=28.0 size=     512kB time=00:00:14.44 bitrate= 290.4kbits/s speed=8.92x    frame=  444 fps=209 q=28.0 size=     768kB time=00:00:18.18 bitrate= 346.1kbits/s speed=8.57x    frame=  532 fps=203 q=28.0 size=    1024kB time=00:00:21.68 bitrate= 386.8kbits/s speed=8.27x    frame=  720 fps=231 q=28.0 size=    1280kB time=00:00:29.23 bitrate= 358.7kbits/s speed=9.36x    frame=  818 fps=226 q=28.0 size=    1536kB time=00:00:33.13 bitrate= 379.8kbits/s speed=9.14x    frame=  891 fps=216 q=28.0 size=    2048kB time=00:00:36.03 bitrate= 465.6kbits/s speed=8.73x    frame=  981 fps=212 q=28.0 size=    2304kB time=00:00:39.61 bitrate= 476.5kbits/s speed=8.56x    frame= 1100 fps=211 q=-1.0 Lsize=    2959kB time=00:00:44.00 bitrate= 550.8kbits/s speed=8.42x    
video:2233kB audio:693kB subtitle:0kB other streams:0kB global headers:0kB muxing overhead: 1.116412%
[libx264 @ 0x5647583b6c40] frame I:6     Avg QP:15.37  size:  5282
[libx264 @ 0x5647583b6c40] frame P:769   Avg QP:21.57  size:  2698
[libx264 @ 0x5647583b6c40] frame B:325   Avg QP:19.91  size:   551
[libx264 @ 0x5647583b6c40] consecutive B-frames: 58.6%  4.2%  5.2% 32.0%
[libx264 @ 0x5647583b6c40] mb I  I16..4: 47.6% 49.6%  2.8%
[libx264 @ 0x5647583b6c40] mb P  I16..4:  1.7%  4.8%  0.1%  P16..4: 48.1% 12.5%  6.1%  0.0%  0.0%    skip:26.7%
[libx264 @ 0x5647583b6c40] mb B  I16..4:  0.4%  0.8%  0.0%  B16..8: 22.1%  1.4%  0.2%  direct: 2.6%  skip:72.5%  L0:51.4% L1:42.6% BI: 6.0%
[libx264 @ 0x5647583b6c40] 8x8 transform intra:69.7% inter:86.0%
[libx264 @ 0x5647583b6c40] coded y,uvDC,uvAC intra: 44.5% 70.7% 21.7% inter: 19.1% 26.9% 1.1%
[libx264 @ 0x5647583b6c40] i16 v,h,dc,p: 29% 26% 12% 32%
[libx264 @ 0x5647583b6c40] i8 v,h,dc,ddl,ddr,vr,hd,vl,hu: 25% 20% 33%  3%  4%  4%  4%  3%  4%
[libx264 @ 0x5647583b6c40] i4 v,h,dc,ddl,ddr,vr,hd,vl,hu: 25% 16% 13%  5% 11% 13%  8%  5%  4%
[libx264 @ 0x5647583b6c40] i8c dc,h,v,p: 53% 24% 17%  7%
[libx264 @ 0x5647583b6c40] Weighted P-Frames: Y:4.8% UV:3.1%
[libx264 @ 0x5647583b6c40] ref P L0: 74.0% 12.7%  9.7%  3.4%  0.2%
[libx264 @ 0x5647583b6c40] ref B L0: 84.0% 13.2%  2.7%
[libx264 @ 0x5647583b6c40] ref B L1: 96.1%  3.9%
[libx264 @ 0x5647583b6c40] kb/s:415.56
[aac @ 0x5647583d12c0] Qavg: 685.822
	Command being timed: "/home/aleksandr/bin_debug/ffmpeg -i ../.././Samples/divx4b153_badmacroblock.avi -c:v libx264 -f mov /home/aleksandr/Debug-release_tests/Debug/Samples/divx4b153_badmacroblock.avi_tc/output_std1.mov"
	User time (seconds): 18.73
	System time (seconds): 0.10
	Percent of CPU this job got: 355%
	Elapsed (wall clock) time (h:mm:ss or m:ss): 0:05.29
	Average shared text size (kbytes): 0
	Average unshared data size (kbytes): 0
	Average stack size (kbytes): 0
	Average total size (kbytes): 0
	Maximum resident set size (kbytes): 79732
	Average resident set size (kbytes): 0
	Major (requiring I/O) page faults: 21
	Minor (reclaiming a frame) page faults: 16022
	Voluntary context switches: 8131
	Involuntary context switches: 2256
	Swaps: 0
	File system inputs: 3280
	File system outputs: 5936
	Socket messages sent: 0
	Socket messages received: 0
	Signals delivered: 0
	Page size (bytes): 4096
	Exit status: 0
